<svg xmlns="http://www.w3.org/2000/svg" viewBox="0 0 600 390" width="600" height="390" role="img" aria-label="Line chart of the long-run mean number of bridges on five islands, store doubling per packet, for horizons one to twelve steps. All bridges rise from 3.71 to 6.12 of 10; bridges from home rise from 1.71 to 2.69 of 4. Both rise at every step and stay above the values 3.33 and 1.33 that hold when futures are not counted.">
<rect width="600" height="390" fill="#0b0d13"/>
<line x1="70" y1="318.0" x2="574" y2="318.0" stroke="#252936" stroke-width="1"/>
<text x="58.0" y="323.0" font-family="SFMono-Regular, Menlo, Consolas, monospace" font-size="14" font-weight="400" fill="#878a96" text-anchor="end">0</text>
<line x1="70" y1="278.0" x2="574" y2="278.0" stroke="#252936" stroke-width="1"/>
<text x="58.0" y="283.0" font-family="SFMono-Regular, Menlo, Consolas, monospace" font-size="14" font-weight="400" fill="#878a96" text-anchor="end">1</text>
<line x1="70" y1="238.0" x2="574" y2="238.0" stroke="#252936" stroke-width="1"/>
<text x="58.0" y="243.0" font-family="SFMono-Regular, Menlo, Consolas, monospace" font-size="14" font-weight="400" fill="#878a96" text-anchor="end">2</text>
<line x1="70" y1="198.0" x2="574" y2="198.0" stroke="#252936" stroke-width="1"/>
<text x="58.0" y="203.0" font-family="SFMono-Regular, Menlo, Consolas, monospace" font-size="14" font-weight="400" fill="#878a96" text-anchor="end">3</text>
<line x1="70" y1="158.0" x2="574" y2="158.0" stroke="#252936" stroke-width="1"/>
<text x="58.0" y="163.0" font-family="SFMono-Regular, Menlo, Consolas, monospace" font-size="14" font-weight="400" fill="#878a96" text-anchor="end">4</text>
<line x1="70" y1="118.0" x2="574" y2="118.0" stroke="#252936" stroke-width="1"/>
<text x="58.0" y="123.0" font-family="SFMono-Regular, Menlo, Consolas, monospace" font-size="14" font-weight="400" fill="#878a96" text-anchor="end">5</text>
<line x1="70" y1="78.0" x2="574" y2="78.0" stroke="#252936" stroke-width="1"/>
<text x="58.0" y="83.0" font-family="SFMono-Regular, Menlo, Consolas, monospace" font-size="14" font-weight="400" fill="#878a96" text-anchor="end">6</text>
<text x="78.0" y="342.0" font-family="SFMono-Regular, Menlo, Consolas, monospace" font-size="14" font-weight="400" fill="#878a96" text-anchor="middle">1</text>
<text x="122.0" y="342.0" font-family="SFMono-Regular, Menlo, Consolas, monospace" font-size="14" font-weight="400" fill="#878a96" text-anchor="middle">2</text>
<text x="166.0" y="342.0" font-family="SFMono-Regular, Menlo, Consolas, monospace" font-size="14" font-weight="400" fill="#878a96" text-anchor="middle">3</text>
<text x="210.0" y="342.0" font-family="SFMono-Regular, Menlo, Consolas, monospace" font-size="14" font-weight="400" fill="#878a96" text-anchor="middle">4</text>
<text x="254.0" y="342.0" font-family="SFMono-Regular, Menlo, Consolas, monospace" font-size="14" font-weight="400" fill="#878a96" text-anchor="middle">5</text>
<text x="298.0" y="342.0" font-family="SFMono-Regular, Menlo, Consolas, monospace" font-size="14" font-weight="400" fill="#878a96" text-anchor="middle">6</text>
<text x="342.0" y="342.0" font-family="SFMono-Regular, Menlo, Consolas, monospace" font-size="14" font-weight="400" fill="#878a96" text-anchor="middle">7</text>
<text x="386.0" y="342.0" font-family="SFMono-Regular, Menlo, Consolas, monospace" font-size="14" font-weight="400" fill="#878a96" text-anchor="middle">8</text>
<text x="430.0" y="342.0" font-family="SFMono-Regular, Menlo, Consolas, monospace" font-size="14" font-weight="400" fill="#878a96" text-anchor="middle">9</text>
<text x="474.0" y="342.0" font-family="SFMono-Regular, Menlo, Consolas, monospace" font-size="14" font-weight="400" fill="#878a96" text-anchor="middle">10</text>
<text x="518.0" y="342.0" font-family="SFMono-Regular, Menlo, Consolas, monospace" font-size="14" font-weight="400" fill="#878a96" text-anchor="middle">11</text>
<text x="562.0" y="342.0" font-family="SFMono-Regular, Menlo, Consolas, monospace" font-size="14" font-weight="400" fill="#878a96" text-anchor="middle">12</text>
<text x="322.0" y="372.0" font-family="Avenir Next, Helvetica Neue, Arial, sans-serif" font-size="15" font-weight="400" fill="#a9aab3" text-anchor="middle">steps ahead (τ)</text>
<line x1="70" y1="184.7" x2="574" y2="184.7" stroke="#ffbd68" stroke-opacity="0.45" stroke-width="1.5" stroke-dasharray="6 6"/>
<line x1="70" y1="264.7" x2="574" y2="264.7" stroke="#ff633d" stroke-opacity="0.45" stroke-width="1.5" stroke-dasharray="6 6"/>
<text x="78.0" y="204.7" font-family="Avenir Next, Helvetica Neue, Arial, sans-serif" font-size="14" font-weight="400" fill="#878a96" text-anchor="start">futures not counted: 3.33</text>
<text x="574.0" y="284.7" font-family="Avenir Next, Helvetica Neue, Arial, sans-serif" font-size="14" font-weight="400" fill="#878a96" text-anchor="end">futures not counted: 1.33</text>
<polyline points="78.0,169.4 122.0,156.6 166.0,145.9 210.0,136.3 254.0,127.3 298.0,118.7 342.0,110.5 386.0,102.5 430.0,94.8 474.0,87.3 518.0,80.1 562.0,73.2" fill="none" stroke="#ffbd68" stroke-width="3" stroke-linejoin="round"/>
<circle cx="78.0" cy="169.4" r="4" fill="#ffbd68"/>
<circle cx="122.0" cy="156.6" r="4" fill="#ffbd68"/>
<circle cx="166.0" cy="145.9" r="4" fill="#ffbd68"/>
<circle cx="210.0" cy="136.3" r="4" fill="#ffbd68"/>
<circle cx="254.0" cy="127.3" r="4" fill="#ffbd68"/>
<circle cx="298.0" cy="118.7" r="4" fill="#ffbd68"/>
<circle cx="342.0" cy="110.5" r="4" fill="#ffbd68"/>
<circle cx="386.0" cy="102.5" r="4" fill="#ffbd68"/>
<circle cx="430.0" cy="94.8" r="4" fill="#ffbd68"/>
<circle cx="474.0" cy="87.3" r="4" fill="#ffbd68"/>
<circle cx="518.0" cy="80.1" r="4" fill="#ffbd68"/>
<circle cx="562.0" cy="73.2" r="4" fill="#ffbd68"/>
<polyline points="78.0,249.4 122.0,242.2 166.0,236.9 210.0,232.9 254.0,229.5 298.0,226.3 342.0,223.3 386.0,220.5 430.0,217.8 474.0,215.2 518.0,212.7 562.0,210.3" fill="none" stroke="#ff633d" stroke-width="3" stroke-linejoin="round"/>
<circle cx="78.0" cy="249.4" r="4" fill="#ff633d"/>
<circle cx="122.0" cy="242.2" r="4" fill="#ff633d"/>
<circle cx="166.0" cy="236.9" r="4" fill="#ff633d"/>
<circle cx="210.0" cy="232.9" r="4" fill="#ff633d"/>
<circle cx="254.0" cy="229.5" r="4" fill="#ff633d"/>
<circle cx="298.0" cy="226.3" r="4" fill="#ff633d"/>
<circle cx="342.0" cy="223.3" r="4" fill="#ff633d"/>
<circle cx="386.0" cy="220.5" r="4" fill="#ff633d"/>
<circle cx="430.0" cy="217.8" r="4" fill="#ff633d"/>
<circle cx="474.0" cy="215.2" r="4" fill="#ff633d"/>
<circle cx="518.0" cy="212.7" r="4" fill="#ff633d"/>
<circle cx="562.0" cy="210.3" r="4" fill="#ff633d"/>
<text x="556.0" y="59.2" font-family="Avenir Next, Helvetica Neue, Arial, sans-serif" font-size="16" font-weight="600" fill="#ffbd68" text-anchor="end">6.12 of 10 bridges</text>
<text x="556.0" y="240.3" font-family="Avenir Next, Helvetica Neue, Arial, sans-serif" font-size="16" font-weight="600" fill="#ff633d" text-anchor="end">2.69 of 4 home bridges</text>
<text x="84.0" y="155.4" font-family="Avenir Next, Helvetica Neue, Arial, sans-serif" font-size="15" font-weight="400" fill="#ffbd68" text-anchor="start">3.71</text>
<text x="84.0" y="235.4" font-family="Avenir Next, Helvetica Neue, Arial, sans-serif" font-size="15" font-weight="400" fill="#ff633d" text-anchor="start">1.71</text>
<text x="20.0" y="30.0" font-family="Avenir Next, Helvetica Neue, Arial, sans-serif" font-size="16" font-weight="600" fill="#f7f4eb" text-anchor="start">Mean bridges standing, five islands, store doubling per packet</text>
</svg>
